# AST/ASF file generated using VICON BodyLanguage
# -----------------------------------------------
:version 1.10
:name VICON
:units
  mass 1.0
  length 0.45
  angle deg
:documentation
   .ast/.asf automatically generated from VICON data using
   VICON BodyBuilder and BodyLanguage model FoxedUp or BRILLIANT.MOD
:root
   order TX TY TZ RX RY RZ
   axis XYZ
   position 0 0 0  
   orientation 0 0 0 
:bonedata
  begin
     id 1 
     name lhipjoint
     direction 0.822369 -0.411937 0.392449 
     length 3.8167 
     axis 0 0 0  XYZ
  end
  begin
     id 2 
     name lfemur
     direction 0.34202 -0.939693 0  
     length 6.16791  
     axis 0 0 20  XYZ
    dof rx ry rz
    limits (-160.0 20.0)
           (-70.0 70.0)
           (-60.0 70.0)
  end
  begin
     id 3 
     name ltibia
     direction 0.34202 -0.939693 0   
     length 7.07101   
     axis 0 0 20   XYZ
    dof rx
    limits (-10.0 170.0)
  end
  begin
     id 4 
     name lfoot
     direction 0.028254 -0.0776273 0.996582   
     length 1.66799   
     axis -90 7.62852e-016 20   XYZ
    dof rx rz
    limits (-45.0 90.0)
           (-70.0 20.0)
  end
  begin
     id 5 
     name ltoes
     direction 1.53483e-011 -4.21688e-011 1   
     length 0.851674   
     axis -90 7.62852e-016 20   XYZ
    dof rx
    limits (-90.0 20.0)
  end
  begin
     id 6 
     name rhipjoint
     direction -0.822466 -0.411836 0.392353   
     length 3.81764  
     axis 0 0 0  XYZ 
  end
  begin
     id 7 
     name rfemur
     direction -0.34202 -0.939693 0   
     length 6.28636   
     axis 0 0 -20   XYZ
    dof rx ry rz
    limits (-160.0 20.0)
           (-70.0 70.0)
           (-70.0 60.0)
  end
  begin
     id 8 
     name rtibia
     direction -0.34202 -0.939693 0   
     length 6.85621   
     axis 0 0 -20   XYZ
    dof rx
    limits (-10.0 170.0)
 end
 begin
     id 9 
     name rfoot
     direction -0.0553036 -0.151945 0.98684   
     length 1.57293  
     axis -90 -7.62852e-016 -20   XYZ
    dof rx rz
    limits (-45.0 90.0)
           (-20.0 70.0)
  end
  begin
     id 10 
     name rtoes
     direction -1.53592e-011 -4.21964e-011 1   
     length 0.802812   
     axis -90 -7.62852e-016 -20   XYZ
    dof rx
    limits (-90.0 20.0)
  end
  begin
     id 11 
     name lowerback
     direction 0.00654913 0.996475 -0.0836396   
     length 1.97212   
     axis 0 0 0   XYZ
    dof rx ry rz
    limits (-20.0 45.0)
           (-30.0 30.0)
           (-30.0 30.0)
  end
  begin
     id 12 
     name upperback
     direction 0.0111875 0.994527 0.103877   
     length 1.89704   
     axis 0 0 0   XYZ
    dof rx ry rz
    limits (-20.0 45.0)
           (-30.0 30.0)
           (-30.0 30.0)
  end
  begin
     id 13 
     name thorax
     direction 0.00473652 0.989004 0.147814   
     length 1.94516   
     axis 0 0 0   XYZ
    dof rx ry rz
    limits (-20.0 45.0)
           (-30.0 30.0)
           (-30.0 30.0)
  end
  begin
     id 14 
     name lowerneck
     direction -0.00925808 0.999011 0.0434791   
     length 1.81771   
     axis 0 0 0   XYZ
    dof rx ry rz
    limits (-20.0 45.0)
           (-30.0 30.0)
           (-30.0 30.0)
  end
  begin
     id 15 
     name upperneck
     direction 0.00451595 0.964412 -0.264365   
     length 1.80434   
     axis 0 0 0   XYZ
    dof rx ry rz
    limits (-20.0 45.0)
           (-30.0 30.0)
           (-30.0 30.0)
  end
  begin
     id 16
     name head
     direction -0.00110849 0.995756 -0.0920241  
     length 1.84006  
     axis 0 0 0   XYZ
    dof rx ry rz
    limits (-20.0 45.0)
           (-30.0 30.0)
           (-30.0 30.0)
  end
  begin
     id 17 
     name lclavicle
     direction 0.921253 0.385213 0.0538957  
     length 3.67415  
     axis 0 0 0   XYZ
    dof ry rz
    limits (-20.0 10.0)
           (0.0 20.0)
  end
  begin
     id 18 
     name lhumerus
     direction 1 -4.48961e-011 6.73441e-028   
     length 4.32712   
     axis 180 -30 -90   XYZ
    dof rx ry rz
    limits (-60.0 90.0)
           (-90.0 90.0)
           (-90.0 90.0)
  end
  begin
     id 19
     name lradius
     direction 1 -4.48985e-011 -9.53507e-028   
     length 3.28587   
     axis 180 -30 -90   XYZ
    dof rx
    limits (-10.0 170.0)
  end
  begin
     id 20
     name lwrist
     direction 1 -4.48951e-011 -4.67472e-027   
     length 1.64293   
     axis 1.65735e-015 90 90   XYZ
    dof ry
    limits (-180.0 0.0)
 end
  begin
     id 21 
     name lhand
     direction 1 -4.48946e-011 -9.34945e-027   
     length 0.433158   
     axis 5.96574e-015 90 90   XYZ
    dof rx rz
    limits (-90.0 90.0)
           (-45.0 45.0)
  end
  begin
     id 22 
     name lfingers
     direction 1 -4.48882e-011 -1.86989e-026   
     length 0.349224   
     axis 1.19315e-014 90 90   XYZ
    dof rx
    limits (0.0 90.0)
  end
  begin
     id 23
     name lthumb
     direction 0.707107 -6.3493e-011 0.707107   
     length 0.501417   
     axis -90 45 2.85299e-015   XYZ
    dof rx rz
    limits (-45.0 45.0)
           (-45.0 45.0)
  end
  begin
     id 24 
     name rclavicle
     direction -0.884378 0.46502 -0.0403866   
     length 3.50218  
     axis 0 0 0   XYZ 
    dof ry rz
    limits (-10.0 20.0)
           (-20.0 0.0)
  end
  begin
     id 25 
     name rhumerus
     direction -1 -4.48964e-011 1.58188e-027  
     length 4.29104   
     axis 180 30 90   XYZ
    dof rx ry rz
    limits (-90.0 60.0)
           (-90.0 90.0)
           (-90.0 90.0)
  end
  begin
     id 26 
     name rradius
     direction -1 -4.48978e-011 -1.9722e-027   
     length 3.2272   
     axis 180 30 90   XYZ
    dof rx
    limits (-10.0 170.0)
  end
  begin
     id 27 
     name rwrist
     direction -1 -4.48969e-011 -4.67472e-027   
     length 1.6136   
     axis 1.65735e-015 -90 -90   XYZ
    dof ry
    limits (-180.0 0.0)
  end
  begin
     id 28
     name rhand
     direction -1 -4.48846e-011 -9.34945e-027   
     length 0.543623   
     axis 5.96574e-015 -90 -90   XYZ
    dof rx rz
    limits (-90.0 90.0)
           (-45.0 45.0)
  end
  begin
     id 29
     name rfingers
     direction -1 -4.49074e-011 -1.86989e-026   
     length 0.438283   
     axis 1.19315e-014 -90 -90   XYZ
    dof rx
    limits (0.0 90.0)
  end
  begin
     id 30
     name rthumb
     direction -0.707107 -6.34834e-011 0.707107   
     length 0.629289   
     axis -90 -45 -2.85299e-015   XYZ
    dof rx rz
    limits (-45.0 45.0)
           (-45.0 45.0)
  end
:hierarchy
  begin
    root lhipjoint rhipjoint lowerback
    lhipjoint lfemur
    lfemur ltibia
    ltibia lfoot
    lfoot ltoes
    rhipjoint rfemur
    rfemur rtibia
    rtibia rfoot
    rfoot rtoes
    lowerback upperback
    upperback thorax
    thorax lowerneck lclavicle rclavicle
    lowerneck upperneck
    upperneck head
    lclavicle lhumerus
    lhumerus lradius
    lradius lwrist
    lwrist lhand lthumb
    lhand lfingers
    rclavicle rhumerus
    rhumerus rradius
    rradius rwrist
    rwrist rhand rthumb
    rhand rfingers
  end

#!OML:ASF H:\GeneralSubjects\Female5\Project 1\Capture day 1\Session 1\Female5.ASF
:FULLY-SPECIFIED
:DEGREES
65
root -28.4273 15.5504 1.29518 -151.57 77.6207 202.345
lowerback 8.00695 1.96003 5.79327
upperback -10.1792 4.16535 1.37249
thorax -15.6171 1.54059 -2.61094
lowerneck -25.6538 -0.801951 -4.28942
upperneck 46.1058 2.19677 3.70261
head 25.4622 1.2786 4.13912
rclavicle 1.71452e-014 1.63003e-014
rhumerus -32.1727 -39.8492 -32.5914
rradius 76.6008
rwrist -27.5048
rhand -54.7371 -54.2814
rfingers 7.12502
rthumb -27.1287 -82.3518
lclavicle 1.71452e-014 1.63003e-014
lhumerus -50.4639 14.2514 60.5129
lradius 40.0205
lwrist -1.04729
lhand -22.019 35.7469
lfingers 7.12502
lthumb 4.39044 65.6814
rfemur -14.59 8.73163 32.0365
rtibia 11.0705
rfoot -14.2392 -16.197
rtoes -8.68967
lfemur -2.44272 0.155925 -19.5072
ltibia 47.6188
lfoot 15.9696 22.5205
ltoes -73.4398
66
root -28.2647 15.5728 1.30785 -149.88 77.0154 204.28
lowerback 8.18675 1.93869 6.42684
upperback -10.1498 4.29382 1.63782
thorax -15.6801 1.54928 -2.69985
lowerneck -25.5828 -1.00811 -4.51299
upperneck 46.0941 2.04039 3.57527
head 25.4399 1.16958 4.05968
rclavicle 3.84151e-014 1.41137e-014
rhumerus -31.1919 -42.0045 -31.8267
rradius 77.5595
rwrist -28.9393
rhand -55.0575 -55.2863
rfingers 7.12502
rthumb -27.4352 -83.3085
lclavicle 3.84151e-014 1.41137e-014
lhumerus -50.413 14.0509 60.6468
lradius 40.6332
lwrist -0.916704
lhand -22.9407 36.8868
lfingers 7.12502
lthumb 3.50037 66.8378
rfemur -13.3014 9.20545 32.9905
rtibia 10.4537
rfoot -14.8039 -16.6597
rtoes -7.59376
lfemur -5.31105 1.11235 -18.163
ltibia 51.7963
lfoot 14.1646 21.5146
ltoes -73.6774
67
root -28.1119 15.5987 1.31394 -149.608 76.4269 204.614
lowerback 8.30808 1.89453 6.83791
upperback -10.1326 4.3368 1.79179
thorax -15.7289 1.5347 -2.76984
lowerneck -25.6399 -1.20103 -4.83824
upperneck 46.0588 1.88839 3.58873
head 25.4482 1.05456 4.089
rclavicle 1.93815e-015 -6.95746e-015
rhumerus -30.0907 -43.7674 -31.2406
rradius 78.2715
rwrist -30.5117
rhand -55.1114 -56.2757
rfingers 7.12502
rthumb -27.4867 -84.2897
lclavicle 1.93815e-015 -6.95746e-015
lhumerus -50.3001 13.7427 60.8494
lradius 41.1514
lwrist -0.822818
lhand -23.5906 37.2598
lfingers 7.12502
lthumb 2.87274 67.2202
rfemur -12.2324 9.63354 33.5144
rtibia 9.8337
rfoot -14.0737 -17.5181
rtoes -12.7771
lfemur -8.28146 1.50369 -17.4737
ltibia 55.1093
lfoot 15.2557 23.0892
ltoes -73.4175
68
root -27.9697 15.627 1.31064 -150.629 75.8595 203.468
lowerback 8.35013 1.84265 6.90695
upperback -10.193 4.30923 1.88035
thorax -15.8403 1.51962 -2.70757
lowerneck -25.6014 -1.41754 -5.25489
upperneck 46.0493 1.66707 3.77433
head 25.4497 0.924862 4.22277
rclavicle 3.62285e-014 2.40529e-014
rhumerus -28.9388 -45.3783 -30.6691
rradius 78.5993
rwrist -31.6433
rhand -55.0727 -59.4926
rfingers 7.12502
rthumb -27.4497 -87.5125
lclavicle 3.62285e-014 2.40529e-014
lhumerus -50.3245 13.5361 60.9764
lradius 41.552
lwrist -0.928719
lhand -23.8403 37.225
lfingers 7.12502
lthumb 2.63159 67.1885
rfemur -11.3025 9.94524 33.5934
rtibia 9.07168
rfoot -17.025 -17.7846
rtoes -6.95291
lfemur -11.5652 1.41663 -17.3901
ltibia 56.6682
lfoot 20.3469 24.1012
ltoes -73.4506
69
root -27.8312 15.6554 1.30436 -151.492 75.2246 202.426
lowerback 8.3591 1.74439 7.00084
upperback -10.3164 4.22578 1.94335
thorax -16.0118 1.47232 -2.67588
lowerneck -25.3744 -1.52019 -5.56265
upperneck 46.0468 1.52251 4.06521
head 25.3598 0.86555 4.41297
rclavicle -1.95306e-014 2.26615e-014
rhumerus -28.4362 -45.7515 -29.9664
rradius 78.9378
rwrist -33.0637
rhand -56.7103 -65.2703
rfingers 7.12502
rthumb -29.0149 -266.969
lclavicle -1.95306e-014 2.26615e-014
lhumerus -50.561 13.5128 60.751
lradius 41.8468
lwrist -1.11697
lhand -23.4841 36.8401
lfingers 7.12502
lthumb 2.97559 66.7991
rfemur -10.4293 10.1347 33.6872
rtibia 8.27535
rfoot -16.4705 -18.8156
rtoes -12.1658
lfemur -14.9318 1.31606 -17.3217
ltibia 59.193
lfoot 14.5888 25.7758
ltoes -72.9614
70
root -27.6926 15.6846 1.29207 -151.841 74.5957 201.956
lowerback 8.31764 1.65539 7.30469
upperback -10.4303 4.18547 2.01202
thorax -16.1265 1.42414 -2.75943
lowerneck -25.0468 -1.63571 -5.77603
upperneck 46.0556 1.41287 4.14044
head 25.2353 0.813018 4.45989
rclavicle 1.49089e-015 -1.82882e-014
rhumerus -28.0095 -46.0746 -29.344
rradius 79.2942
rwrist -34.0116
rhand -59.3002 -67.5519
rfingers 7.12502
rthumb -31.4854 -265.14
lclavicle 1.49089e-015 -1.82882e-014
lhumerus -50.9144 13.3683 60.4779
lradius 42.0762
lwrist -0.951338
lhand -23.5843 36.6428
lfingers 7.12502
lthumb 2.87885 66.6031
rfemur -9.52465 10.3314 33.9128
rtibia 7.4736
rfoot -16.0529 -19.2403
rtoes -10.311
lfemur -18.1466 1.16051 -17.2371
ltibia 60.8535
lfoot 13.6153 28.6033
ltoes -72.8064
